<svg width="12" height="14" viewBox="0 0 12 14" fill="none" xmlns="http://www.w3.org/2000/svg">
<path d="M0.5 11.999C0.5 12.2751 0.723858 12.499 1 12.499C1.27614 12.499 1.5 12.2751 1.5 11.999H0.5ZM11 12.9989V13.4989H11.5V12.9989H11ZM3.85714 3.1666H3.35714V4.1666H3.85714V3.1666ZM8.14285 4.1666C8.41899 4.1666 8.64285 3.94275 8.64285 3.6666C8.64285 3.39046 8.41899 3.1666 8.14285 3.1666V4.1666ZM11 9.49814C11.2761 9.49814 11.5 9.27428 11.5 8.99814C11.5 8.722 11.2761 8.49814 11 8.49814V9.49814ZM11 11.5002C11.2761 11.5002 11.5 11.2763 11.5 11.0002C11.5 10.724 11.2761 10.5002 11 10.5002V11.5002ZM2.07145 12.4989C1.7953 12.4989 1.57145 12.7227 1.57145 12.9989C1.57145 13.275 1.7953 13.4989 2.07145 13.4989V12.4989ZM2.07143 11.498C2.34757 11.498 2.57143 11.2741 2.57143 10.998C2.57143 10.7218 2.34757 10.498 2.07143 10.498V11.498ZM2.07143 13.5C2.34757 13.5 2.57143 13.2761 2.57143 13C2.57143 12.7239 2.34757 12.5 2.07143 12.5V13.5ZM1.5 11.999V2.33321H0.5V11.999H1.5ZM1.5 2.33321C1.5 1.90501 1.88264 1.5 2.42857 1.5V0.5C1.39655 0.5 0.5 1.28878 0.5 2.33321H1.5ZM2.42857 1.5H10.5714V0.5H2.42857V1.5ZM10.5714 1.5C10.5628 1.5 10.5481 1.49647 10.5333 1.48268C10.518 1.46835 10.5 1.43921 10.5 1.39996H11.5C11.5 0.87097 11.0512 0.5 10.5714 0.5V1.5ZM10.5 1.39996V12.9989H11.5V1.39996H10.5ZM3.85714 4.1666H8.14285V3.1666H3.85714V4.1666ZM2.07145 9.49814H11V8.49814H2.07145V9.49814ZM2.07145 11.5002H11V10.5002H2.07145V11.5002ZM2.07145 13.4989H11V12.4989H2.07145V13.4989ZM2.07143 10.498C1.82187 10.498 1.69145 10.4225 1.62374 10.3539C1.55317 10.2824 1.5 10.1668 1.5 9.99805H0.5C0.5 10.3815 0.625398 10.7659 0.911972 11.0563C1.20141 11.3496 1.6067 11.498 2.07143 11.498V10.498ZM1.5 9.99805C1.5 9.82929 1.55317 9.71374 1.62375 9.64222C1.69146 9.57361 1.82189 9.49814 2.07145 9.49814V8.49814C1.60672 8.49814 1.20142 8.64652 0.911986 8.9398C0.625407 9.23019 0.5 9.61459 0.5 9.99805H1.5ZM2.07143 12.5C1.82187 12.5 1.69145 12.4245 1.62374 12.3559C1.55317 12.2844 1.5 12.1689 1.5 12.0001H0.5C0.5 12.3835 0.625398 12.7679 0.911972 13.0583C1.20141 13.3516 1.6067 13.5 2.07143 13.5V12.5ZM1.5 12.0001C1.5 11.8313 1.55317 11.7158 1.62375 11.6443C1.69146 11.5757 1.82189 11.5002 2.07145 11.5002V10.5002C1.60672 10.5002 1.20142 10.6486 0.911986 10.9418C0.625407 11.2322 0.5 11.6166 0.5 12.0001H1.5Z" fill="#86868A"/>
</svg>
