<?xml version="1.0" standalone="no"?>
<!DOCTYPE svg PUBLIC "-//W3C//DTD SVG 20010904//EN"
 "http://www.w3.org/TR/2001/REC-SVG-20010904/DTD/svg10.dtd">
<svg version="1.0" xmlns="http://www.w3.org/2000/svg"
 width="522.000000pt" height="522.000000pt" viewBox="0 0 522.000000 522.000000"
 preserveAspectRatio="xMidYMid meet">
<metadata>
Created by potrace 1.14, written by Peter Selinger 2001-2017
</metadata>
<g transform="translate(0.000000,522.000000) scale(0.100000,-0.100000)"
fill="#000000" stroke="none">
<path d="M3499 4813 c-25 -63 -38 -103 -34 -103 7 0 -53 -135 -131 -295 -77
-159 -261 -384 -379 -466 -115 -79 -229 -33 -464 188 l-84 80 11 39 c6 21 14
49 17 61 l7 22 -42 -20 c-83 -40 -271 -78 -299 -60 -16 10 -64 -4 -102 -30
-25 -17 -27 -17 -55 0 -65 40 -98 105 -84 167 11 46 45 127 101 236 21 42 39
79 39 82 0 8 -51 -24 -86 -54 -16 -14 -52 -55 -80 -91 -41 -54 -55 -83 -73
-150 -47 -182 -53 -200 -80 -213 -22 -11 -36 -11 -90 4 -106 30 -153 23 -273
-37 -57 -29 -107 -53 -110 -53 -12 0 -57 52 -98 113 -44 65 -45 78 -15 202 7
27 4 26 -30 -19 -67 -86 -73 -152 -22 -235 l20 -34 -54 37 c-62 42 -70 35 -48
-41 14 -52 39 -78 92 -100 l39 -16 -34 -28 c-36 -32 -48 -35 -65 -18 -7 7 -49
13 -95 14 -65 2 -101 -3 -163 -22 -44 -13 -89 -27 -100 -29 -11 -3 -145 -7
-298 -9 -251 -4 -280 -6 -292 -21 -18 -25 -12 -104 12 -150 17 -33 30 -43 89
-66 38 -15 83 -32 99 -39 17 -7 32 -13 35 -14 3 -1 16 -7 30 -13 23 -10 22
-11 -20 -13 -25 -1 -75 -2 -112 -2 -37 0 -66 -3 -63 -7 2 -4 7 -22 10 -41 14
-76 42 -103 121 -113 87 -11 116 -18 171 -41 123 -50 150 -72 185 -150 17 -37
34 -61 45 -63 62 -10 58 -1 55 -129 l-2 -118 25 30 26 30 -3 -85 c-3 -84 -3
-85 21 -82 21 3 23 1 19 -32 -5 -45 4 -46 32 -1 12 19 25 35 30 35 5 0 6 -23
3 -51 -5 -49 -5 -51 15 -40 32 17 34 14 26 -31 -4 -24 -8 -54 -9 -68 0 -14 -5
-31 -9 -38 -10 -16 0 -15 29 4 l25 16 0 -53 0 -54 27 38 c31 44 38 46 39 10 6
-119 8 -133 20 -133 7 0 16 5 19 10 11 18 22 10 29 -20 3 -17 13 -56 22 -86
14 -49 17 -53 28 -38 12 15 15 12 31 -32 24 -65 32 -72 44 -42 15 40 29 42 47
6 l17 -33 12 29 12 28 48 -61 c26 -34 50 -59 53 -56 3 3 7 20 8 38 1 18 3 41
3 52 1 12 14 -5 33 -45 30 -64 30 -65 40 -37 l10 28 20 -23 c11 -13 28 -34 39
-48 l18 -25 1 30 1 30 49 -54 49 -53 -28 -57 c-15 -31 -51 -103 -80 -161 -48
-97 -95 -171 -113 -178 -4 -2 -8 -10 -8 -17 0 -7 -4 -15 -9 -17 -16 -6 -61
-87 -66 -120 -31 -173 -47 -210 -154 -343 -53 -66 -101 -127 -108 -135 -6 -8
-27 -33 -45 -56 -18 -22 -46 -58 -63 -79 -39 -51 -76 -88 -155 -156 -36 -31
-77 -68 -91 -81 -15 -14 -95 -67 -178 -118 -83 -52 -151 -97 -151 -101 0 -17
45 -21 205 -20 l170 2 40 42 c22 24 64 71 94 105 30 34 58 62 62 62 4 0 20
-14 36 -30 15 -17 31 -30 34 -30 8 0 189 361 189 376 0 16 153 246 216 325 31
39 67 74 80 79 39 15 136 80 164 110 33 36 71 79 150 170 36 41 74 84 85 96
11 11 48 53 83 92 61 69 65 71 100 66 20 -3 38 -7 38 -7 1 -1 13 -33 27 -72
14 -38 37 -101 52 -140 14 -38 35 -97 47 -130 41 -118 63 -151 112 -170 59
-23 68 -34 100 -135 15 -47 31 -94 36 -105 6 -16 24 -75 35 -115 1 -3 7 -25
14 -50 26 -89 31 -203 12 -239 -7 -13 -62 -88 -122 -167 -60 -78 -109 -147
-109 -152 0 -5 15 -8 33 -7 17 2 75 6 128 10 l97 6 65 65 c68 67 83 73 147 54
19 -6 50 -13 68 -16 31 -5 33 -4 27 15 -3 11 -17 58 -29 103 -13 46 -30 101
-39 123 -8 22 -25 67 -37 100 -12 33 -24 67 -27 75 -3 8 -7 20 -9 25 -1 6 -16
60 -33 120 -17 61 -33 119 -35 130 -2 11 -9 47 -15 80 -12 65 -16 84 -31 160
-19 100 -24 141 -24 220 1 97 11 242 18 254 6 9 55 18 142 26 21 2 59 7 84 10
82 11 124 14 194 15 60 0 75 -3 115 -29 38 -25 113 -58 136 -61 17 -2 69 38
130 99 39 39 72 71 75 71 3 0 28 -28 55 -62 120 -149 221 -249 297 -294 33
-19 62 -34 65 -34 4 0 51 -25 105 -55 181 -103 234 -178 263 -375 3 -20 7 -45
9 -56 7 -38 19 -208 19 -274 1 -93 -13 -232 -25 -255 -11 -21 -68 -78 -168
-166 l-61 -54 128 -5 c70 -3 149 -3 176 -2 40 3 47 7 47 25 0 35 26 99 45 113
9 7 26 11 38 9 12 -2 48 -6 79 -10 l57 -6 -21 53 c-11 29 -31 87 -43 128 -13
41 -37 108 -54 148 -28 67 -29 73 -11 67 23 -7 23 -7 11 48 -35 160 -35 149 0
285 18 70 35 131 39 135 4 4 24 -39 44 -95 21 -57 44 -116 51 -133 7 -16 19
-46 26 -65 7 -19 27 -66 45 -105 17 -38 41 -91 53 -117 57 -127 216 -306 319
-362 l53 -28 -7 68 c-4 38 -8 87 -10 109 -1 22 -3 45 -3 51 -1 5 -16 26 -33
46 -100 109 -100 111 -44 107 25 -2 46 -3 46 -2 0 1 -26 20 -58 42 -74 50
-175 147 -195 187 -28 55 -48 190 -49 323 0 40 -5 49 -60 104 -122 121 -195
267 -233 467 -8 41 -14 376 -7 437 5 47 13 47 64 -1 51 -48 53 -45 64 84 21
226 -1 297 -131 425 -81 80 -188 145 -260 158 -118 22 -152 25 -245 22 -58 -2
-118 -7 -135 -10 -16 -3 -46 -8 -65 -12 -19 -3 -42 -7 -50 -9 -8 -2 -31 -6
-50 -10 -19 -4 -42 -8 -50 -9 -24 -4 -90 -16 -114 -21 -92 -18 -348 -24 -466
-10 -75 8 -252 44 -287 57 -20 7 -22 12 -13 28 13 25 6 29 -61 36 -46 5 -75 9
-99 15 -3 0 5 9 17 19 l22 19 -42 16 c-24 9 -48 16 -55 16 -7 0 -12 5 -12 10
0 6 9 10 19 10 37 0 30 17 -12 30 -48 15 -70 30 -44 30 28 0 19 15 -19 33
l-36 17 23 19 22 18 -29 8 c-16 5 -32 9 -36 10 -5 2 -13 3 -19 4 -19 2 2 21
23 21 12 0 18 3 14 7 -7 7 -9 8 -74 22 -52 10 -59 16 -42 36 7 8 11 15 9 16
-95 19 -142 23 -284 23 -167 0 -215 -12 -315 -79 -28 -19 -59 -37 -70 -40 -11
-4 -34 -18 -50 -32 l-31 -25 -72 30 c-40 16 -106 43 -147 60 -41 17 -111 47
-154 68 -88 42 -87 44 16 64 67 13 163 62 195 98 21 25 37 93 48 205 4 46 4
47 -18 36 -12 -6 -41 -27 -65 -46 -45 -36 -125 -83 -144 -83 -5 0 -24 -6 -41
-14 -66 -28 -90 -37 -92 -34 -2 2 -12 28 -23 59 l-19 56 41 37 c54 48 156 100
236 121 71 19 227 24 325 11 161 -20 290 -48 341 -72 76 -36 181 -144 286
-293 47 -67 89 -118 92 -112 9 14 -1 114 -24 241 -5 25 -7 46 -5 48 4 5 82
-90 175 -213 92 -123 158 -195 177 -195 24 0 35 41 29 102 l-5 60 27 -18 c15
-9 45 -32 67 -49 53 -43 210 -145 223 -145 6 0 12 -4 14 -8 5 -14 170 -90 208
-97 157 -29 343 -26 539 11 84 15 138 44 210 111 58 54 66 79 24 69 -34 -8
-162 -45 -183 -53 -30 -12 -110 -15 -110 -4 0 5 29 24 65 41 67 32 77 43 48
54 -35 13 -68 36 -68 48 0 13 68 50 164 89 79 32 93 52 29 45 -141 -18 -194
-18 -207 -2 -18 21 -16 77 3 113 8 16 69 83 136 151 67 68 120 126 117 128 -8
9 -77 -26 -135 -69 -76 -55 -112 -69 -136 -51 -18 13 -17 15 18 47 34 31 36
36 22 50 -31 30 -27 36 74 116 30 24 60 51 66 60 27 39 100 301 84 301 -14 0
-155 -195 -189 -261 -33 -67 -89 -107 -225 -163 -97 -40 -152 -4 -174 114 -12
64 -9 92 34 310 31 156 41 265 25 274 -6 4 -15 -4 -22 -21z"/>
</g>
</svg>
