<svg width="14" height="18" viewBox="0 0 14 18" fill="none" xmlns="http://www.w3.org/2000/svg">
<path d="M12.5303 0.969669C12.3897 0.829017 12.1989 0.75 12 0.75H2C1.80109 0.75 1.61032 0.829018 1.46967 0.96967C1.32902 1.11032 1.25 1.30109 1.25 1.5V16.941L6.77639 14.1778L7 14.066L7.22361 14.1778L12.75 16.941V1.5C12.75 1.30109 12.671 1.11032 12.5303 0.969669ZM12.5303 0.969669L12.8839 0.616116L12.5303 0.969669ZM12.5 1.5V1H12H2H1.5V1.5V15.7188V16.5318L2.22562 16.165L6.66111 13.9222L6.66312 13.9212L7 13.7528L7.33688 13.9212L7.33889 13.9222L11.7744 16.165L12.5 16.5318V15.7188V1.5Z" fill="#161616" stroke="#161617"/>
</svg>
