<svg width="18" height="14" viewBox="0 0 18 14" fill="none" xmlns="http://www.w3.org/2000/svg">
<path d="M12.8387 10.625H13.2263L13.3229 10.2496C13.4331 9.82152 13.6822 9.44205 14.0312 9.17067C14.3802 8.8993 14.8093 8.75135 15.2514 8.75C15.6244 8.74952 15.9901 8.85358 16.307 9.05038C16.6241 9.24731 16.8796 9.5292 17.0445 9.86405C17.2094 10.1989 17.2771 10.5733 17.24 10.9447C17.2028 11.3161 17.0622 11.6696 16.8342 11.9651L17.23 12.2706L16.8342 11.9651C16.6062 12.2606 16.2999 12.4863 15.95 12.6165C15.6002 12.7466 15.2209 12.7761 14.8552 12.7015C14.4895 12.6269 14.152 12.4513 13.8811 12.1945C13.6101 11.9378 13.4167 11.6102 13.3226 11.249L13.2252 10.875H12.8387H9.62541C9.42642 10.8748 9.23564 10.7957 9.09494 10.655C8.95424 10.5143 8.8751 10.3235 8.87491 10.1245V7.62501V7.12501H8.37491H5.16109H4.77379L4.67697 7.50001C4.55527 7.97134 4.26586 8.3821 3.86297 8.65531L4.14359 9.06913L3.86297 8.65531C3.46008 8.92851 2.97138 9.0454 2.48847 8.98407C2.00556 8.92273 1.5616 8.68738 1.23981 8.32212C0.918015 7.95687 0.740479 7.48679 0.740479 7.00001C0.740479 6.51322 0.918015 6.04314 1.23981 5.67789C1.5616 5.31264 2.00556 5.07728 2.48847 5.01595C2.97138 4.95461 3.46008 5.0715 3.86297 5.3447C4.26586 5.61791 4.55527 6.02868 4.67697 6.50001L4.77379 6.87501H5.16109H8.37491H8.87491V6.37501V3.87551C8.8751 3.67652 8.95424 3.48574 9.09494 3.34504C9.23559 3.20439 9.42629 3.12526 9.6252 3.12501C9.62527 3.12501 9.62534 3.12501 9.62541 3.12501L12.8387 3.12501H13.226L13.3228 2.75001C13.4445 2.27868 13.734 1.86791 14.1368 1.59471C14.5397 1.3215 15.0284 1.20461 15.5113 1.26595C15.9942 1.32728 16.4382 1.56264 16.76 1.92789C17.0818 2.29314 17.2593 2.76322 17.2593 3.25001C17.2593 3.73679 17.0818 4.20687 16.76 4.57212C16.4382 4.93738 15.9942 5.17273 15.5113 5.23407C15.0284 5.2954 14.5397 5.17851 14.1368 4.90531C13.734 4.6321 13.4445 4.22133 13.3228 3.75001L13.226 3.37501H12.8387H9.62491H9.12491V3.87501V10.125V10.625H9.62491H12.8387ZM15.2499 1.50001L15.2494 1.50001C14.7856 1.50047 14.3408 1.68494 14.0128 2.01293C13.6848 2.34093 13.5004 2.78565 13.4999 3.24951V3.25001C13.4999 3.59612 13.6025 3.93447 13.7948 4.22225L14.2106 3.94447L13.7948 4.22225C13.9871 4.51004 14.2604 4.73434 14.5802 4.8668C14.9 4.99925 15.2518 5.0339 15.5913 4.96638C15.9308 4.89886 16.2426 4.73218 16.4873 4.48744C16.7321 4.2427 16.8988 3.93088 16.9663 3.59142C17.0338 3.25195 16.9991 2.90008 16.8667 2.58031C16.7342 2.26054 16.5099 1.98723 16.2222 1.79493C15.9344 1.60264 15.596 1.50001 15.2499 1.50001ZM2.74991 8.75001H2.7504C3.21426 8.74954 3.65898 8.56507 3.98698 8.23708C4.31497 7.90908 4.49944 7.46436 4.49991 7.0005V7.00001C4.49991 6.65389 4.39727 6.31554 4.20498 6.02776C4.01269 5.73997 3.73937 5.51567 3.4196 5.38322C3.09983 5.25076 2.74797 5.21611 2.4085 5.28363C2.06903 5.35116 1.75721 5.51783 1.51247 5.76257C1.26773 6.00731 1.10106 6.31913 1.03353 6.6586C0.966007 6.99806 1.00066 7.34993 1.13312 7.6697C1.26557 7.98947 1.48987 8.26279 1.77766 8.45508C2.06544 8.64737 2.40379 8.75001 2.74991 8.75001ZM16.9999 10.7505V10.75C16.9999 10.4039 16.8973 10.0655 16.705 9.77776C16.5127 9.48997 16.2394 9.26567 15.9196 9.13322C15.5998 9.00076 15.248 8.96611 14.9085 9.03363C14.569 9.10116 14.2572 9.26783 14.0125 9.51257C13.7677 9.75731 13.6011 10.0691 13.5335 10.4086C13.466 10.7481 13.5007 11.0999 13.6331 11.4197C13.7656 11.7395 13.9899 12.0128 14.2777 12.2051C14.5654 12.3974 14.9038 12.5 15.2499 12.5H15.2504C15.7143 12.4995 16.159 12.3151 16.487 11.9871C16.815 11.6591 16.9994 11.2144 16.9999 10.7505Z" fill="#161616" stroke="#161617"/>
</svg>
