<svg width="16" height="16" viewBox="0 0 16 16" fill="none" xmlns="http://www.w3.org/2000/svg">
<path d="M8.04176 6L7.90842 5.89998L5.74279 4.27559C5.74266 4.2755 5.74254 4.2754 5.74241 4.27531C5.61203 4.17805 5.4538 4.12535 5.29113 4.125C5.29101 4.125 5.29088 4.125 5.29075 4.125L5.29156 3.625L8.04176 6ZM8.04176 6H8.20844L14.2495 6C14.2496 6 14.2497 6 14.2498 6C14.4487 6.00031 14.6393 6.07944 14.7799 6.22005C14.9207 6.36076 14.9998 6.55154 15 6.75052V14.2495C14.9998 14.4485 14.9207 14.6392 14.7799 14.7799C14.6392 14.9207 14.4485 14.9998 14.2495 15H1.75052C1.55154 14.9998 1.36076 14.9207 1.22005 14.7799L0.869338 15.1307L1.22005 14.7799C1.0794 14.6393 1.00027 14.4486 1 14.2497V4.8753C1.00027 4.67639 1.0794 4.48571 1.22005 4.34505C1.36071 4.2044 1.55141 4.12526 1.75032 4.125M8.04176 6L1.75032 4.125M1.75032 4.125C1.75039 4.125 1.75046 4.125 1.75052 4.125L1.75032 4.125ZM0.8665 15.1335C0.632155 14.8992 0.500347 14.5814 0.5 14.25L0.8665 15.1335ZM5.59156 4.475L5.45823 4.375H5.29156H1.74906H1.24901L1.24906 4.87505L1.25 14.25L1.25005 14.75H1.75H14.25H14.75V14.25V6.75V6.25H14.25H7.95823L5.59156 4.475ZM6.84156 1.35L6.70823 1.25H6.54156H2.25V1H6.5411C6.7038 1.00034 6.86206 1.05306 6.99246 1.15034C6.99257 1.15042 6.99268 1.15051 6.99279 1.15059L9.15842 2.77498L9.29176 2.875H9.45844H15V3.125H9.20823L6.84156 1.35Z" fill="#161616" stroke="#86868A"/>
</svg>
