<svg width="20" height="18" viewBox="0 0 20 18" fill="none" xmlns="http://www.w3.org/2000/svg">
<path d="M1.25 6.81869L10 0.860352L18.75 6.81869L15.2025 9.2343M1.25 6.81869L4.79749 9.2343M1.25 6.81869V13.3187M15.2025 9.2343C15.2338 9.33007 15.25 9.42779 15.25 9.52702V14.9437M15.2025 9.2343C15.1917 9.20126 15.179 9.16854 15.1647 9.13594C14.7186 8.12594 12.5759 7.36035 10 7.36035C7.42405 7.36035 5.28141 8.12594 4.8353 9.13594C4.82092 9.16854 4.8083 9.20126 4.79749 9.2343M4.79749 9.2343C4.76617 9.33007 4.75 9.42779 4.75 9.52702V14.9437M4.75 14.9437C4.75 16.1403 7.1005 17.1104 10 17.1104C12.8995 17.1104 15.25 16.1403 15.25 14.9437M4.75 14.9437C4.75 13.747 7.1005 12.777 10 12.777C12.8995 12.777 15.25 13.747 15.25 14.9437" stroke="#161617" stroke-linecap="round" stroke-linejoin="round"/>
</svg>
