<svg width="18" height="18" viewBox="0 0 18 18" fill="none" xmlns="http://www.w3.org/2000/svg">
<path d="M1.5 7.25H1V7.75V16.5V17H1.5H10.25H10.75V16.5V7.75V7.25H10.25H1.5ZM13.375 4.125H5.125V3.875H13.375C13.5739 3.875 13.7647 3.95402 13.9053 4.09467C14.046 4.23532 14.125 4.42609 14.125 4.625V12.875H13.875V4.625V4.125H13.375ZM16.5 1H9.5V0.75H16.5C16.6989 0.75 16.8897 0.829018 17.0303 0.969669C17.171 1.11032 17.25 1.30109 17.25 1.5V8.5H17V1.5V1H16.5ZM10.25 17.25H1.5C1.30109 17.25 1.11032 17.171 0.96967 17.0303C0.829018 16.8897 0.75 16.6989 0.75 16.5V7.75C0.75 7.55109 0.829018 7.36032 0.96967 7.21967C1.11032 7.07902 1.30109 7 1.5 7H10.25C10.4489 7 10.6397 7.07902 10.7803 7.21967C10.921 7.36032 11 7.55109 11 7.75V16.5C11 16.6989 10.921 16.8897 10.7803 17.0303C10.6397 17.171 10.4489 17.25 10.25 17.25Z" fill="#161616" stroke="#161617"/>
</svg>
