<svg width="14" height="16" viewBox="0 0 14 16" fill="none" xmlns="http://www.w3.org/2000/svg">
<path d="M0.25 14.2487C0.25 14.5249 0.473858 14.7487 0.75 14.7487C1.02614 14.7487 1.25 14.5249 1.25 14.2487H0.25ZM13.25 15.4986V15.9986H13.75V15.4986H13.25ZM4.32143 3.33326H3.82143V4.33326H4.32143V3.33326ZM9.67856 4.33326C9.95471 4.33326 10.1786 4.1094 10.1786 3.83326C10.1786 3.55711 9.95471 3.33326 9.67856 3.33326V4.33326ZM13.25 10.9977C13.5261 10.9977 13.75 10.7738 13.75 10.4977C13.75 10.2215 13.5261 9.99768 13.25 9.99768V10.9977ZM13.25 13.5002C13.5261 13.5002 13.75 13.2764 13.75 13.0002C13.75 12.7241 13.5261 12.5002 13.25 12.5002V13.5002ZM2.08931 14.9986C1.81317 14.9986 1.58931 15.2225 1.58931 15.4986C1.58931 15.7747 1.81317 15.9986 2.08931 15.9986V14.9986ZM2.08928 13.4974C2.36543 13.4974 2.58928 13.2736 2.58928 12.9974C2.58928 12.7213 2.36543 12.4974 2.08928 12.4974V13.4974ZM2.08928 16C2.36543 16 2.58928 15.7761 2.58928 15.5C2.58928 15.2239 2.36543 15 2.08928 15V16ZM1.25 14.2487V2.16651H0.25V14.2487H1.25ZM1.25 2.16651C1.25 1.55424 1.79254 1 2.53571 1V0C1.30644 0 0.25 0.938007 0.25 2.16651H1.25ZM2.53571 1H12.7143V0H2.53571V1ZM12.7143 1C12.7352 1 12.7473 1.00766 12.7519 1.01197C12.7541 1.01402 12.7537 1.01436 12.7525 1.01174C12.7511 1.00864 12.75 1.0042 12.75 0.999953H13.75C13.75 0.415738 13.2532 0 12.7143 0V1ZM12.75 0.999953V15.4986H13.75V0.999953H12.75ZM4.32143 4.33326H9.67856V3.33326H4.32143V4.33326ZM2.08931 10.9977H13.25V9.99768H2.08931V10.9977ZM2.08931 13.5002H13.25V12.5002H2.08931V13.5002ZM2.08931 15.9986H13.25V14.9986H2.08931V15.9986ZM2.08928 12.4974C1.75044 12.4974 1.55306 12.394 1.44071 12.2801C1.32549 12.1634 1.25 11.9854 1.25 11.7476H0.25C0.25 12.2 0.397719 12.6469 0.728936 12.9826C1.06301 13.3211 1.53527 13.4974 2.08928 13.4974V12.4974ZM1.25 11.7476C1.25 11.5098 1.3255 11.3317 1.44071 11.215C1.55307 11.1011 1.75047 10.9977 2.08931 10.9977V9.99768C1.53529 9.99768 1.06304 10.174 0.728952 10.5126C0.39773 10.8482 0.25 11.2951 0.25 11.7476H1.25ZM2.08928 15C1.75044 15 1.55306 14.8965 1.44071 14.7827C1.32549 14.666 1.25 14.4879 1.25 14.2501H0.25C0.25 14.7026 0.397719 15.1495 0.728936 15.4851C1.06301 15.8236 1.53527 16 2.08928 16V15ZM1.25 14.2501C1.25 14.0123 1.3255 13.8343 1.44071 13.7175C1.55307 13.6037 1.75047 13.5002 2.08931 13.5002V12.5002C1.53529 12.5002 1.06304 12.6766 0.728952 13.0151C0.39773 13.3507 0.25 13.7976 0.25 14.2501H1.25Z" fill="#86868A"/>
</svg>
