<svg width="20" height="18" viewBox="0 0 20 18" fill="none" xmlns="http://www.w3.org/2000/svg">
<path d="M1.25 7.25H0.75V7.75V16.5V17H1.25H5H5.5V16.5V7.75V7.25H5H1.25ZM8.75 7.25H8.25V7.75V16.5V17H8.75H12.5H13V16.5V7.75V7.25H12.5H8.75ZM15.625 4.125H11.125V3.875H15.625C15.8239 3.875 16.0147 3.95402 16.1553 4.09467C16.296 4.23532 16.375 4.42609 16.375 4.625V11.625H16.125V4.625V4.125H15.625ZM18.75 1H14.25V0.75H18.75C18.9489 0.75 19.1397 0.829018 19.2803 0.969669C19.421 1.11032 19.5 1.30109 19.5 1.5V8.5H19.25V1.5V1H18.75ZM5 17.25H1.25C1.05109 17.25 0.860323 17.171 0.71967 17.0303C0.579018 16.8897 0.5 16.6989 0.5 16.5V7.75C0.5 7.55109 0.579018 7.36032 0.71967 7.21967C0.860322 7.07902 1.05109 7 1.25 7H5C5.19891 7 5.38968 7.07902 5.53033 7.21967C5.67098 7.36032 5.75 7.55109 5.75 7.75V16.5C5.75 16.6989 5.67098 16.8897 5.53033 17.0303C5.38968 17.171 5.19891 17.25 5 17.25ZM12.5 17.25H8.75C8.55109 17.25 8.36032 17.171 8.21967 17.0303C8.07902 16.8897 8 16.6989 8 16.5V7.75C8 7.55109 8.07902 7.36032 8.21967 7.21967C8.36032 7.07902 8.55109 7 8.75 7H12.5C12.6989 7 12.8897 7.07902 13.0303 7.21967C13.171 7.36032 13.25 7.55109 13.25 7.75V16.5C13.25 16.6989 13.171 16.8897 13.0303 17.0303C12.8897 17.171 12.6989 17.25 12.5 17.25Z" fill="#161616" stroke="#161617"/>
</svg>
