<svg width="18" height="18" viewBox="0 0 18 18" fill="none" xmlns="http://www.w3.org/2000/svg">
<path d="M2.75 13.35H7.875V13.75H2.75C2.23903 13.75 1.7358 13.5232 1.3552 13.0969C0.972953 12.6688 0.75 12.0771 0.75 11.45V3.05C0.75 2.42286 0.972953 1.83123 1.3552 1.40311C1.7358 0.976844 2.23903 0.75 2.75 0.75H15.25C15.761 0.75 16.2642 0.976844 16.6448 1.40311C17.027 1.83123 17.25 2.42286 17.25 3.05V11.45C17.25 12.0771 17.027 12.6688 16.6448 13.0969C16.2642 13.5232 15.761 13.75 15.25 13.75H12.225H11.9445L11.7983 13.9894L9.92762 17.0525L9.67659 16.8909L11.7843 13.35H15.25C15.7336 13.35 16.1842 13.1343 16.5069 12.773C16.8279 12.4134 17 11.9368 17 11.45V3.05C17 2.56323 16.8279 2.08658 16.5069 1.72704L16.1339 2.06005L16.5069 1.72704C16.1842 1.36565 15.7336 1.15 15.25 1.15H2.75C2.26641 1.15 1.81582 1.36565 1.49315 1.72704C1.17214 2.08658 1 2.56323 1 3.05V11.45C1 11.9368 1.17214 12.4134 1.49315 12.773C1.81582 13.1343 2.26641 13.35 2.75 13.35ZM4.5 4.95H13.5V5.35H4.5V4.95ZM4.5 9.55V9.15H9.75V9.55H4.5Z" fill="#161616" stroke="#161617"/>
</svg>
