<svg width="18" height="18" viewBox="0 0 18 18" fill="none" xmlns="http://www.w3.org/2000/svg">
<path d="M1.01457 9.5C1.11679 11.1904 1.75347 12.8097 2.83933 14.1205C4.0321 15.5603 5.69149 16.5369 7.52933 16.8806C9.36716 17.2243 11.2673 16.9134 12.8998 16.002C14.5323 15.0906 15.794 13.6361 16.4658 11.8913C17.1376 10.1464 17.177 8.22139 16.5772 6.45051C15.9773 4.67964 14.7762 3.17478 13.1824 2.1973C11.5886 1.21982 9.70271 0.831459 7.85235 1.09967C6.00199 1.36789 4.30402 2.27573 3.05333 3.66554L2.3024 4.5H3.425H6V4.75H2V0.75H2.25V2.89375V4.1266L3.10875 3.24203C3.8741 2.45367 4.78986 1.8269 5.80181 1.39885C6.81374 0.970803 7.90127 0.750165 9 0.75L1.01457 9.5ZM1.01457 9.5H0.765162M1.01457 9.5H0.765162M0.765162 9.5C0.85355 10.9559 1.3267 12.3657 2.14038 13.5835C3.0469 14.9402 4.33537 15.9976 5.84286 16.622C7.35035 17.2464 9.00915 17.4098 10.6095 17.0915C12.2098 16.7731 13.6798 15.9874 14.8336 14.8336C15.9874 13.6798 16.7731 12.2098 17.0915 10.6095C17.4098 9.00915 17.2464 7.35035 16.622 5.84286C15.9976 4.33537 14.9402 3.0469 13.5835 2.14038C12.2268 1.23387 10.6317 0.750014 9.00007 0.75L0.765162 9.5ZM8.875 9.04914V3.875H9.125V8.7375V8.94431L9.27109 9.0907L12.0432 11.8684L11.8687 12.0429L8.875 9.04914Z" fill="#161616" stroke="#86868A"/>
</svg>
