<svg width="18" height="18" viewBox="0 0 18 18" fill="none" xmlns="http://www.w3.org/2000/svg">
<path d="M3.375 17.75H1.5C0.810625 17.75 0.25 17.1893 0.25 16.5V1.5C0.25 0.81075 0.810625 0.25 1.5 0.25H12.75C13.4394 0.25 14 0.81075 14 1.5V2.125H12.75V1.5H1.5V16.5H3.375V17.75Z" fill="#161616"/>
<path d="M10.2916 15.0176C11.1708 15.0176 11.8836 14.3185 11.8836 13.4562C11.8836 12.5938 11.1708 11.8948 10.2916 11.8948C9.41242 11.8948 8.69968 12.5938 8.69968 13.4562C8.69968 14.3185 9.41242 15.0176 10.2916 15.0176Z" fill="#161616"/>
<path d="M16.2376 13.3234C15.7695 12.1359 14.9568 11.1088 13.9001 10.3693C12.8434 9.62978 11.5889 9.21016 10.2916 9.16231C8.99439 9.21016 7.73989 9.62978 6.68316 10.3693C5.62643 11.1088 4.81379 12.1359 4.3457 13.3234C4.31408 13.4092 4.31408 13.5031 4.3457 13.5889C4.81379 14.7765 5.62643 15.8035 6.68316 16.543C7.73989 17.2825 8.99439 17.7022 10.2916 17.75C11.5889 17.7022 12.8434 17.2825 13.9001 16.543C14.9568 15.8035 15.7695 14.7765 16.2376 13.5889C16.2692 13.5031 16.2692 13.4092 16.2376 13.3234ZM10.2916 15.9934C9.77998 15.9934 9.27983 15.8446 8.85441 15.5658C8.429 15.287 8.09742 14.8908 7.90163 14.4271C7.70583 13.9635 7.6546 13.4533 7.75442 12.9612C7.85423 12.469 8.10061 12.0169 8.4624 11.662C8.82419 11.3072 9.28513 11.0655 9.78694 10.9676C10.2888 10.8697 10.8089 10.92 11.2816 11.112C11.7543 11.3041 12.1583 11.6293 12.4426 12.0465C12.7268 12.4638 12.8785 12.9543 12.8785 13.4562C12.8775 14.1288 12.6046 14.7735 12.1197 15.2491C11.6348 15.7247 10.9774 15.9924 10.2916 15.9934Z" fill="#161616"/>
<path d="M4.85926 2.75068V5.33759C5.69501 4.41045 5.84425 4.38183 6.95233 3.70458C8.07859 3.06414 9.35039 2.73517 10.6408 2.75051C11.9312 2.76586 13.1951 3.12498 14.3063 3.79204C15.4175 4.45909 16.3372 5.41075 16.9735 6.55201C17.6098 7.69327 17.8625 9.41977 17.704 10.7079C17.5348 12.0818 16.5996 13.1125 16.5996 13.1125C16.3841 12.5536 16.131 12.1443 15.4952 11.2804C15.4952 11.2804 15.8647 10.9905 15.8255 10.0247C15.7863 9.05883 15.4909 8.12173 14.9705 7.31262C14.4502 6.50351 13.7242 5.8525 12.8696 5.42853C12.015 5.00456 11.0635 4.82341 10.1158 4.90427C9.16816 4.98513 7.96039 5.45845 7.4262 5.81311C6.89202 6.16777 6.68 6.4715 6.36084 7.0388H9.07777V9.18286H2.75V2.75068H4.85926Z" fill="#161616"/>
<path d="M1.5 17H2.875V17.25H1.5C1.0868 17.25 0.75 16.9131 0.75 16.5V1.5C0.75 1.08686 1.0868 0.75 1.5 0.75H12.75C13.1632 0.75 13.5 1.08686 13.5 1.5V1.625H13.25V1.5V1H12.75H1.5H1V1.5V16.5V17H1.5ZM17.2077 10.6468C17.1368 11.223 16.9076 11.7421 16.6806 12.1323C16.5321 11.8788 16.349 11.6073 16.1069 11.271C16.1149 11.2548 16.1228 11.2382 16.1305 11.221C16.2544 10.9474 16.3474 10.5543 16.3251 10.0044C16.2823 8.95006 15.9598 7.92652 15.3911 7.04216C14.8223 6.15774 14.0281 5.44509 13.0918 4.98062C12.1555 4.51612 11.1124 4.31742 10.0733 4.40608C9.54291 4.45133 8.96031 4.60338 8.44883 4.78477C7.93974 4.96532 7.46295 5.18855 7.14964 5.39656C6.52277 5.81276 6.26334 6.19237 5.92507 6.79363L5.50584 7.5388H6.36084H8.57777V8.68286H3.25V3.25068H4.35926V5.33759V6.63904L5.23064 5.67237C5.64183 5.21622 5.8616 5.00677 6.10136 4.8291C6.29007 4.68926 6.49084 4.56813 6.8135 4.37348C6.92756 4.30467 7.05685 4.22667 7.20622 4.1354C8.25405 3.54112 9.43605 3.23622 10.6349 3.25048C11.8363 3.26477 13.0134 3.59909 14.049 4.22073C15.0846 4.8424 15.9427 5.72993 16.5368 6.7955C17.1124 7.82801 17.3558 9.44405 17.2077 10.6468ZM6.96984 10.779C7.94215 10.0985 9.09651 9.71027 10.2916 9.66268C11.4867 9.71027 12.6411 10.0985 13.6134 10.779C14.5755 11.4523 15.3175 12.3823 15.7522 13.4562C15.3175 14.53 14.5755 15.46 13.6134 16.1334C12.6411 16.8138 11.4867 17.202 10.2916 17.2496C9.09651 17.202 7.94215 16.8138 6.96984 16.1334C6.00772 15.46 5.26579 14.53 4.83109 13.4562C5.26579 12.3823 6.00772 11.4523 6.96984 10.779ZM10.2916 16.4934H10.2924C11.1074 16.4922 11.8906 16.1742 12.4698 15.6061C13.0493 15.0377 13.3773 14.265 13.3785 13.4569V13.4562C13.3785 12.8533 13.1962 12.2647 12.8558 11.765C12.5154 11.2654 12.0327 10.8775 11.4698 10.6488C10.9069 10.4201 10.2881 10.3604 9.6912 10.4769C9.09424 10.5934 8.5446 10.8811 8.11229 11.3051C7.67987 11.7292 7.38426 12.2707 7.26439 12.8618C7.14451 13.4529 7.20613 14.0655 7.44102 14.6217C7.67586 15.1777 8.07287 15.6514 8.58035 15.984C9.08771 16.3165 9.68322 16.4934 10.2916 16.4934ZM11.3836 13.4562C11.3836 14.0333 10.9039 14.5176 10.2916 14.5176C9.67938 14.5176 9.19968 14.0333 9.19968 13.4562C9.19968 12.8791 9.67938 12.3948 10.2916 12.3948C10.9039 12.3948 11.3836 12.8791 11.3836 13.4562Z" stroke="#161617"/>
</svg>
