<svg width="18" height="18" viewBox="0 0 18 18" fill="none" xmlns="http://www.w3.org/2000/svg">
<path d="M12.1288 12.1539L12.4447 11.7948C13.443 10.6598 13.9872 9.22706 13.9861 7.75036V7.74955C13.9873 6.47755 13.5892 5.23262 12.8405 4.17629C12.0916 3.11966 11.0259 2.29973 9.77914 1.82639C8.53225 1.35298 7.16444 1.24917 5.8542 1.52912C4.54405 1.80905 3.3551 2.45902 2.4404 3.3913L1.5835 4.26467V3.04112V0.75H1.27796V4.75H5.50013V4.5H2.95299H1.79252L2.58959 3.65657C3.54717 2.64331 4.82902 1.97032 6.22805 1.74092C7.62697 1.51154 9.06666 1.73812 10.3174 2.38625C11.5684 3.03454 12.5605 4.06865 13.1301 5.32689C13.6999 6.58559 13.8123 7.99262 13.4481 9.32103C13.084 10.6491 12.266 11.8172 11.1304 12.641C9.99518 13.4645 8.607 13.8975 7.18829 13.8739C5.76956 13.8504 4.39757 13.3716 3.29242 12.5106C2.29404 11.7328 1.56484 10.6829 1.2002 9.5H0.887588C1.25412 10.721 1.99662 11.8173 3.02934 12.6406C4.22767 13.596 5.74037 14.1225 7.306 14.125L12.1288 12.1539ZM12.1288 12.1539L12.4736 12.4854L17.0279 16.8654M12.1288 12.1539L17.0279 16.8654M17.0279 16.8654L16.8261 17.0585L12.22 12.668L11.9026 12.3654L11.5612 12.6406C10.3731 13.5987 8.86616 14.1259 7.30644 14.125L17.0279 16.8654Z" fill="#161616" stroke="#161617"/>
</svg>
