<svg width="18" height="18" viewBox="0 0 18 18" fill="none" xmlns="http://www.w3.org/2000/svg">
<path d="M8.94084 9.73457L8.94165 9.73501C8.9596 9.74471 8.97968 9.7498 9.00009 9.74981L8.94084 9.73457ZM8.94084 9.73457L0.815955 5.35963L8.94084 9.73457ZM8.94127 0.764375L8.94084 0.764606L0.815953 5.13955L8.94127 0.764375ZM8.94127 0.764375C8.95934 0.754619 8.97956 0.749512 9.0001 0.749512C9.02065 0.749512 9.04086 0.75462 9.05894 0.764376L9.05937 0.764606M8.94127 0.764375L9.05937 0.764606M9.05937 0.764606L17.1843 5.13954C17.2041 5.15025 17.2207 5.16613 17.2323 5.1855C17.2439 5.20488 17.25 5.22702 17.25 5.24959C17.25 5.27216 17.2439 5.2943 17.2323 5.31367C17.2207 5.33305 17.2041 5.34893 17.1843 5.35963L9.05937 9.73457L9.05856 9.73501M9.05937 0.764606L9.05856 9.73501M9.05856 9.73501C9.04061 9.74471 9.02053 9.7498 9.00012 9.74981L9.05856 9.73501ZM0.767922 5.31367C0.779468 5.33301 0.796024 5.34887 0.815841 5.35957L0.767922 5.31367ZM0.767922 5.31367C0.756353 5.2943 0.750244 5.27216 0.750244 5.24959M0.767922 5.31367L0.750244 5.24959M0.750244 5.24959C0.750244 5.22702 0.756353 5.20488 0.767922 5.1855M0.750244 5.24959L0.767922 5.1855M0.767922 5.1855C0.779469 5.16617 0.796025 5.15031 0.815841 5.13961L0.767922 5.1855ZM9.00074 13.4998H9.00012C8.9797 13.4998 8.95961 13.4947 8.94165 13.485L8.94084 13.4846L1.25618 9.34667L1.37451 9.12703L8.76307 13.1052L9.0001 13.2329L9.23714 13.1052L16.6256 9.12707L16.7441 9.34707L9.05937 13.485L9.05921 13.4851C9.04124 13.4948 9.02114 13.4998 9.00074 13.4998ZM8.70379 13.9248C8.7948 13.974 8.89664 13.9998 9.0001 13.9998L8.70379 13.9248ZM9.00073 17.2498H9.00012C8.9797 17.2498 8.95961 17.2447 8.94165 17.235L8.94084 17.2346L1.25618 13.0967L1.37451 12.877L8.76307 16.8552L9.0001 16.9829L9.23714 16.8552L16.6256 12.8771L16.7441 13.0971L9.05937 17.235L9.05921 17.2351C9.04124 17.2448 9.02114 17.2498 9.00073 17.2498ZM8.70379 17.6748C8.7948 17.724 8.89664 17.7498 9.0001 17.7498L8.70379 17.6748ZM1.95643 4.80957L1.13886 5.2498L1.95642 5.69004L8.76305 9.35523L9.0001 9.48288L9.23716 9.35523L16.0438 5.69004L16.8613 5.2498L16.0438 4.80957L9.23715 1.14445L9.0001 1.0168L8.76305 1.14445L1.95643 4.80957Z" fill="#161616" stroke="#161617"/>
</svg>
