<svg width="14" height="18" viewBox="0 0 14 18" fill="none" xmlns="http://www.w3.org/2000/svg">
<path d="M12 17H12.5V16.5V9V8.5H12H2H1.5V9V16.5V17H2H12ZM12 8.25H12.5V7.75V5.25V4.75H12H2H1.5V5.25V7.75V8.25H2H12ZM1.5 4V4.5H2H12H12.5V4V1.5V1H12H2H1.5V1.5V4ZM6.25 11.625V11.375H7.75V11.625H6.25ZM1.25 16.5V0.75H12.75V16.5C12.75 16.6989 12.671 16.8897 12.5303 17.0303C12.3897 17.171 12.1989 17.25 12 17.25H2C1.80109 17.25 1.61032 17.171 1.46967 17.0303C1.32902 16.8897 1.25 16.6989 1.25 16.5Z" fill="#161616" stroke="#161617"/>
</svg>
