<svg width="20" height="18" viewBox="0 0 20 18" fill="none" xmlns="http://www.w3.org/2000/svg">
<path d="M10.4482 2.85332L10.0053 1.95781L9.55397 2.84914L7.80397 6.30539L7.79973 6.31377L7.7958 6.3223L7.62121 6.70186L7.26605 6.75514L7.26338 6.75553L3.41605 7.31139L2.41837 7.45553L3.13683 8.16261L5.89437 10.8765L6.17526 11.1688L6.10796 11.5427L6.10789 11.5427L6.10657 11.5507L5.48157 15.382L5.32146 16.3635L6.20476 15.9066L9.64851 14.1254L9.64852 14.1254L9.65187 14.1236L10.0236 13.9278L10.3925 14.0837L13.8178 15.8803L14.7137 16.3502L14.5429 15.3531L13.8866 11.5218L13.8866 11.5218L13.8859 11.5177L13.8205 11.1542L14.0988 10.8833L14.1003 10.8818L16.8378 8.1943L17.5583 7.48701L16.559 7.34264L12.7117 6.78678L12.709 6.78639L12.3539 6.73311L12.1793 6.35355L12.1795 6.35346L12.1732 6.34082L10.4482 2.85332ZM7.22783 6.50736L7.48823 6.46972L7.60467 6.23377L10 1.37984L12.3954 6.23377L12.5117 6.46944L12.7718 6.50729L18.1254 7.28638L14.2511 11.0606L14.0627 11.2442L14.1073 11.5034L15.0233 16.8363L10.2326 14.3199L10 14.1977L9.76754 14.3199L4.97682 16.8363L5.89283 11.5034L5.93732 11.2444L5.7492 11.0608L1.87471 7.28111L7.22783 6.50736Z" fill="#161616" stroke="#161617"/>
</svg>
