<svg width="16" height="16" viewBox="0 0 16 16" fill="none" xmlns="http://www.w3.org/2000/svg">
<path d="M12.9052 12.7286L14.1679 13.9913L13.9913 14.1679L12.7286 12.9052L12.375 12.5516L12.0214 12.9052L10.7588 14.1679L10.5821 13.9913L11.8448 12.7286L12.1984 12.3749L11.8447 12.0214L10.5821 10.7592L10.7588 10.5823L12.0214 11.8454L12.375 12.1991L12.7286 11.8454L13.9912 10.5823L14.168 10.7592L12.9053 12.0214L12.5516 12.3749L12.9052 12.7286ZM11.2079 4.61543L11.4845 4.33884L11.2826 4.0038C11.0997 3.70039 11.0021 3.35328 11 2.99905C11.001 2.4692 11.2119 1.9613 11.5866 1.58661C11.9616 1.21163 12.47 1.00067 13.0003 1C13.5306 1.00007 14.0392 1.21078 14.4142 1.58579C14.7893 1.96086 15 2.46957 15 3C15 3.53043 14.7893 4.03914 14.4142 4.41421C14.0395 4.78898 13.5313 4.99965 13.0013 5C12.647 4.99792 12.2997 4.9003 11.9962 4.71742L11.6611 4.51556L11.3846 4.79213L4.79214 11.3846L4.51554 11.6612L4.71744 11.9962C4.90033 12.2997 4.99795 12.6469 5 13.0013C4.99975 13.3964 4.88247 13.7826 4.66294 14.1111C4.44318 14.44 4.13082 14.6964 3.76537 14.8478C3.39992 14.9991 2.99778 15.0387 2.60982 14.9616C2.22186 14.8844 1.86549 14.6939 1.58579 14.4142C1.30608 14.1345 1.1156 13.7781 1.03843 13.3902C0.96126 13.0022 1.00087 12.6001 1.15224 12.2346L0.690302 12.0433L1.15224 12.2346C1.30362 11.8692 1.55996 11.5568 1.88886 11.3371C2.21739 11.1175 2.60358 11.0003 2.99868 11C3.35304 11.0021 3.70029 11.0997 4.00384 11.2826L4.33886 11.4844L4.61543 11.2079L11.2079 4.61543ZM3 14.75H3.00058C3.46439 14.7495 3.90905 14.565 4.23702 14.237C4.56498 13.9091 4.74947 13.4644 4.75 13.0006V13C4.75 12.6539 4.64737 12.3155 4.45507 12.0278C4.26278 11.74 3.98947 11.5157 3.6697 11.3832L3.47836 11.8451L3.6697 11.3832C3.34993 11.2508 2.99806 11.2161 2.65859 11.2836C2.31913 11.3511 2.00731 11.5178 1.76256 11.7626C1.51782 12.0073 1.35115 12.3191 1.28363 12.6586C1.2161 12.9981 1.25076 13.3499 1.38321 13.6697C1.51567 13.9895 1.73997 14.2628 2.02775 14.4551C2.31554 14.6474 2.65388 14.75 3 14.75ZM11.7626 1.76256L12.1161 2.11612L11.7626 1.76256C11.5178 2.00731 11.3512 2.31913 11.2836 2.65859C11.2161 2.99806 11.2508 3.34992 11.3832 3.6697C11.5157 3.98947 11.74 4.26278 12.0278 4.45507C12.3155 4.64736 12.6539 4.75 13 4.75L13.0006 4.75C13.4644 4.74947 13.9091 4.56498 14.237 4.23702C14.565 3.90905 14.7495 3.46439 14.75 3.00057V3C14.75 2.65388 14.6474 2.31554 14.4551 2.02775C14.2628 1.73997 13.9895 1.51566 13.6697 1.38321C13.3499 1.25076 12.9981 1.2161 12.6586 1.28363C12.3191 1.35115 12.0073 1.51782 11.7626 1.76256ZM2.64645 5.34115L3 5.6947L3.35356 5.34115L6.49375 2.20095L6.6679 2.3751L3 6.04299L1.20711 4.2501L1.38125 4.07595L2.64645 5.34115Z" fill="#161616" stroke="#161617"/>
</svg>
