<svg width="18" height="18" viewBox="0 0 18 18" fill="none" xmlns="http://www.w3.org/2000/svg">
<path d="M9.12507 8.375V8.875H9.62507H17.2501V9.125H9.62507H9.12507V9.625V17.25H8.87507V9.625V9.125H8.37507H0.750073V8.875H8.37507H8.87507V8.375V0.750001H9.12507V8.375ZM13.2803 14.9786L15.168 16.8662L14.9913 17.0429L12.5734 14.625L14.9913 12.2071L15.168 12.3837L13.2803 14.2714L12.9267 14.625L13.2803 14.9786ZM5.87513 17.25H5.87507H0.875073H0.875019C0.853705 17.25 0.832746 17.2446 0.814134 17.2342C0.795527 17.2238 0.779875 17.2088 0.768669 17.1907C0.757466 17.1726 0.751083 17.1519 0.750126 17.1306C0.749169 17.1093 0.75367 17.0881 0.763202 17.0691L0.763224 17.069L3.2521 12.0913C3.26483 12.0733 3.28137 12.0583 3.30059 12.0474C3.32329 12.0345 3.34896 12.0277 3.37507 12.0277C3.40119 12.0277 3.42685 12.0345 3.44955 12.0474C3.46878 12.0583 3.48532 12.0733 3.49805 12.0913L5.98692 17.069L5.98694 17.0691C5.99648 17.0881 6.00098 17.1093 6.00002 17.1306C5.99906 17.1519 5.99268 17.1726 5.98148 17.1907L6.4068 17.4536L5.98147 17.1907C5.97027 17.2088 5.95462 17.2238 5.93601 17.2342C5.9174 17.2446 5.89644 17.25 5.87513 17.25ZM1.43923 16.2764L1.07744 17H1.88645H4.8637H5.67271L5.31091 16.2764L3.82229 13.2991L3.37507 12.4046L2.92786 13.2991L1.43923 16.2764ZM12.7501 1H12.2501V1.5V5.25V5.75H12.7501H16.5007H17.0008L17.0007 5.24992L17.0001 1.49992L17 1H16.5001H12.7501ZM3.37562 1H3.37507C2.90534 1 2.44616 1.13929 2.05559 1.40026C1.66503 1.66123 1.36062 2.03215 1.18086 2.46613C1.0011 2.9001 0.954068 3.37764 1.04571 3.83834C1.13735 4.29905 1.36354 4.72223 1.69569 5.05438L2.02568 4.7244L1.69569 5.05438C2.02784 5.38653 2.45103 5.61273 2.91173 5.70437C3.37244 5.79601 3.84997 5.74897 4.28395 5.56922C4.71792 5.38946 5.08884 5.08505 5.34981 4.69448L4.93408 4.4167L5.34981 4.69448C5.61078 4.30391 5.75007 3.84473 5.75007 3.375L5.75007 3.37445C5.74938 2.74492 5.49899 2.14137 5.05385 1.69623C4.6087 1.25108 4.00515 1.00069 3.37562 1ZM16.4995 6H12.7506C12.7505 6 12.7504 6 12.7503 6C12.5514 5.99968 12.3608 5.92054 12.2202 5.77991C12.0795 5.6392 12.0003 5.44842 12.0001 5.24943V1.50058C12.0003 1.30158 12.0795 1.1108 12.2202 0.970092L11.8668 0.616735L12.2202 0.970091C12.3608 0.829445 12.5515 0.750301 12.7504 0.750001H16.4998C16.6987 0.750301 16.8893 0.829445 17.03 0.970092C17.1707 1.1108 17.2498 1.30158 17.2501 1.50057V5.24943C17.2498 5.44842 17.1707 5.6392 17.03 5.77991C16.8894 5.92054 16.6987 5.99968 16.4998 6C16.4997 6 16.4996 6 16.4995 6ZM3.37487 6C2.85577 5.99996 2.34832 5.84601 1.9167 5.55761C1.48502 5.26917 1.14857 4.8592 0.949889 4.37954C0.751209 3.89989 0.699225 3.37209 0.800511 2.86289C0.901797 2.35369 1.1518 1.88596 1.51892 1.51885C1.88603 1.15173 2.35376 0.901726 2.86296 0.80044C3.37216 0.699154 3.89996 0.751138 4.37962 0.949818C4.85927 1.1485 5.26924 1.48495 5.55768 1.91663C5.84608 2.34825 6.00003 2.8557 6.00007 3.3748C5.99915 4.07076 5.72227 4.73795 5.23015 5.23008C4.73802 5.7222 4.07083 5.99908 3.37487 6Z" fill="#161616" stroke="#86868A"/>
</svg>
